<?xml version="1.0" standalone="no"?>
<!DOCTYPE svg PUBLIC "-//W3C//DTD SVG 20010904//EN"
 "http://www.w3.org/TR/2001/REC-SVG-20010904/DTD/svg10.dtd">
<svg version="1.0" xmlns="http://www.w3.org/2000/svg"
 width="30px" height="30px" viewBox="0 0 929.000000 1280.000000"
 preserveAspectRatio="xMidYMid meet">
<metadata>
Created by potrace 1.15, written by Peter Selinger 2001-2017
</metadata>
<g transform="translate(0.000000,1280.000000) scale(0.100000,-0.100000)"
fill="#03a9f4" stroke="none">
<path d="M4605 12628 c-780 -1594 -1789 -3131 -3070 -4678 -199 -240 -723
-948 -832 -1125 -97 -157 -257 -444 -357 -638 -131 -256 -230 -600 -321 -1112
-27 -149 -27 -153 -22 -525 5 -375 11 -466 53 -703 197 -1137 875 -2224 1839
-2948 514 -387 1079 -646 1682 -773 66 -14 159 -36 205 -50 45 -13 124 -29
173 -35 50 -6 144 -18 210 -26 166 -21 794 -21 960 0 66 8 161 20 210 26 50 6
135 24 190 39 55 15 156 40 225 55 767 165 1513 578 2124 1175 276 270 450
479 651 780 248 372 418 721 544 1111 84 259 168 656 192 909 5 52 14 131 20
175 7 50 9 196 7 385 -4 274 -7 320 -31 454 -66 369 -164 706 -266 913 -161
328 -503 889 -656 1078 -92 113 -202 258 -293 388 -35 48 -152 195 -261 325
-835 1001 -1496 1915 -2004 2774 -285 482 -575 1048 -774 1513 -81 191 -306
674 -314 675 -3 0 -41 -73 -84 -162z"/>
</g>
 <path d="M0,0 C40,20 60,40 80,60 C70,70 60,80 50,90 C40,100 30,90 20,80 C10,70 20,60 40,40 Z" fill="#000" stroke="#000" stroke-width="2"/>
</svg>
